<?xml version="1.0" encoding="utf-8"?>
<!-- Generator: Adobe Illustrator 22.0.0, SVG Export Plug-In . SVG Version: 6.00 Build 0)  -->
<svg version="1.1" id="图层_1" xmlns="http://www.w3.org/2000/svg" xmlns:xlink="http://www.w3.org/1999/xlink" x="0px" y="0px"
	 viewBox="0 0 512 512" style="enable-background:new 0 0 512 512;" xml:space="preserve">
<style type="text/css">
	.st0{fill:#673AB7;}
	.st1{fill:#4C4C4C;}
	.st2{fill:#CCCCCC;}
</style>
<g id="图层_2">
	<circle class="st0" cx="263.5" cy="280.5" r="129.5"/>
</g>
<g>
	<path class="st1" d="M269.5,359.5c-29.6,0-69.8-20-69.8-51.2v-92.4h35v91.6c0,13.2,13.9,27.5,35.3,27.5c22.5,0,35.7-14.3,35.7-27.5
		V225v-9.1h35v92.4C340.7,339.5,299.1,359.5,269.5,359.5z"/>
</g>
<g>
	<path class="st1" d="M245,216h61v13.2h-44.7v27.7h28.5v13.6h-28.5v35.7H296v13.6h-50.9L245,216z"/>
</g>
<g>
	<path class="st2" d="M262.5,352.5c-29.6,0-69.8-20-69.8-51.2v-92.4h35v91.6c0,13.2,13.9,27.5,35.3,27.5c22.5,0,35.7-14.3,35.7-27.5
		V218v-9.1h35v92.4C333.7,332.5,292.1,352.5,262.5,352.5z"/>
</g>
<g>
	<path class="st2" d="M238,209h61v13.2h-44.7v27.7h28.5v13.6h-28.5v35.7H289v13.6h-50.9L238,209z"/>
</g>
</svg>
