<?xml version="1.0" encoding="utf-8"?>
<!-- Generator: Adobe Illustrator 22.0.0, SVG Export Plug-In . SVG Version: 6.00 Build 0)  -->
<svg version="1.1" id="图层_1" xmlns="http://www.w3.org/2000/svg" xmlns:xlink="http://www.w3.org/1999/xlink" x="0px" y="0px"
	 viewBox="0 0 512 512" style="enable-background:new 0 0 512 512;" xml:space="preserve">
<style type="text/css">
	.st0{fill:#FCEE21;}
	.st1{fill-rule:evenodd;clip-rule:evenodd;}
</style>
<g>
	<path class="st0" d="M269.4,414.9c-4.1-2.2-8.7-3.4-13.3-3.4s-9.2,1.2-13.3,3.4l-125.2,69.2l24.2-148.6c1.4-8.6-1.4-17.4-7.5-23.6
		L31.1,206l141.5-21.6c9.1-1.4,16.8-7.2,20.7-15.5l62.7-133.6l62.7,133.6c3.9,8.3,11.7,14.1,20.7,15.5L481,206L377.8,311.9
		c-6.1,6.2-8.9,15-7.5,23.6l24.2,148.6L269.4,414.9z"/>
	<path d="M256.1,70.6l49.1,104.7c6,12.8,18,21.8,32,23.9l112.6,17.2L367,301.4c-9.4,9.6-13.7,23.3-11.5,36.5L374.8,456l-98.1-54.3
		c-6.3-3.5-13.4-5.3-20.6-5.3c-7.2,0-14.3,1.8-20.6,5.3L137.4,456l19.3-118.1c2.2-13.3-2.1-26.9-11.5-36.5l-82.9-84.9l112.6-17.2
		c14-2.1,26-11.1,32-23.9L256.1,70.6 M256.1,16.9c-4.5,0-9.1,2.4-11.3,7.2l-65,138.5c-1.8,3.8-5.3,6.4-9.4,7L24,192
		C14,193.5,9.9,205.7,17,213l106.7,109.3c2.8,2.8,4,6.8,3.4,10.7l-25.1,153.7c-1.3,8.1,5.1,14.5,12.3,14.5c2,0,4.1-0.5,6-1.6
		L250,428c1.9-1,4-1.6,6-1.6s4.2,0.5,6,1.6l129.7,71.7c2,1.1,4,1.6,6,1.6c7.2,0,13.6-6.5,12.3-14.5l-25.1-153.7
		c-0.6-3.9,0.6-7.9,3.4-10.7L495.2,213c7.1-7.3,3-19.5-7.1-21.1l-146.3-22.4c-4.1-0.6-7.6-3.3-9.4-7l-65-138.5
		C265.1,19.3,260.6,16.9,256.1,16.9L256.1,16.9z"/>
</g>
<path class="st1" d="M213,321L213,321c-6.6,0-12-5.4-12-12v-83c0-6.6,5.4-12,12-12h0c6.6,0,12,5.4,12,12v83
	C225,315.6,219.6,321,213,321z"/>
<path class="st1" d="M298.5,321L298.5,321c-6.9,0-12.5-5.6-12.5-12.5v-82c0-6.9,5.6-12.5,12.5-12.5l0,0c6.9,0,12.5,5.6,12.5,12.5v82
	C311,315.4,305.4,321,298.5,321z"/>
</svg>
